{"title":"How I Met Your Mother - S07E06 - 720p WEB-DL H.264 {$H@uN}","uid":6753542,"size":210745143,"categoryP":"video","categoryS":"hd___tv_shows","magnet":"?xt=urn:btih:2b05ce7f3141b967f2026528ac5afcd645f23255&amp;dn=How+I+Met+Your+Mother+-+S07E06+-+720p+WEB-DL+H.264+%7B%24H%40uN%7D&amp;tr=udp%3A%2F%2Ftracker.openbittorrent.com%3A80&amp;tr=udp%3A%2F%2Fopen.demonii.com%3A1337&amp;tr=udp%3A%2F%2Ftracker.coppersurfer.tk%3A6969&amp;tr=udp%3A%2F%2Fexodus.desync.com%3A6969","seeders":0,"leechers":5,"uploader":"ShaunGP","files":-1,"time":1318955694,"description":"&quot;WEB-DL means straight from iTunes where they release &quot;Bluray&quot; quality episodes.\n Such episodes are without any Logo and Caps.&quot;\n\nHow I Met Your Mother - S07E06 - Mystery Vs. History - 720p WEB-DL H.264 {$H@uN}\n\nGeneral:\n\nComplete name                  : How I Met Your Mother - S07E06 - Mystery Vs. History - 720p WEB-DL H.264 {$H@uN}.mkv\nOriginal air date              : October 17 2011\nGenre                          : Sitcom\nLanguage                       : English\nEncoder                        : $H@uN\nFile format                    : Matroska\nFile size                      : 201 MiB\nDuration                       : 21mn 36s\nOverall bit rate               : 1 301 Kbps\n\n\nVideo:\n\nFormat                         : AVC\nDuration                       : 21mn 36s\nBit rate                       : 1 200 Kbps\nWidth                          : 1 280 pixels\nHeight                         : 720 pixels\nDisplay aspect ratio           : 16:9\nFrame rate mode                : Variable\nFrame rate                     : 23.976 fps\nColor space                    : YUV\nChroma subsampling             : 4:2:0\nBit depth                      : 8 bits\nScan type                      : Progressive\nBits/(Pixel*Frame)             : 0.054\nStream size                    : 182 MiB (91%)\nWriting library                : x264 core 112\nLaguage                        : English\nSubtitles                      : Seperate .srt file included\n\n\nAudio:\n\nFormat                         : AC-3\nMode extension                 : CM (complete main)\nCodec ID                       : A_AC3\nDuration                       : 21mn 36s\nBit rate mode                  : Constant\nBit rate                       : 96 Kbps\nChannel(s)                     : 2 channels\nChannel positions              : Front: L R\nSampling rate                  : 48.0 KHz\nBit depth                      : 16 bits\nCompression mode               : Lossy\nStream size                    : 14.8 MiB (7%)\nLanguage                       : English\n\nScreen Shots:\n &lt;a href=&quot;\nhttp://i1140.photobucket.com/albums/n566/ShaunGP/ScreenShots1/HowIMetYourMother-S07E06-MysteryVsHistory-720pWEB-DLH264HuNmkv_snapshot_0220_20111018_194250.jpg&quot; rel=&quot;nofollow&quot; target=&quot;_NEW&quot;&gt;\nhttp://i1140.photobucket.com/albums/n566/ShaunGP/ScreenShots1/HowIMetYourMother-S07E06-MysteryVsHistory-720pWEB-DLH264HuNmkv_snapshot_0220_20111018_194250.jpg&lt;/a&gt;\n &lt;a href=&quot;\nhttp://i1140.photobucket.com/albums/n566/ShaunGP/ScreenShots1/HowIMetYourMother-S07E06-MysteryVsHistory-720pWEB-DLH264HuNmkv_snapshot_0051_20111018_194057.jpg&quot; rel=&quot;nofollow&quot; target=&quot;_NEW&quot;&gt;\nhttp://i1140.photobucket.com/albums/n566/ShaunGP/ScreenShots1/HowIMetYourMother-S07E06-MysteryVsHistory-720pWEB-DLH264HuNmkv_snapshot_0051_20111018_194057.jpg&lt;/a&gt;\n &lt;a href=&quot;\nhttp://i1140.photobucket.com/albums/n566/ShaunGP/ScreenShots1/HowIMetYourMother-S07E06-MysteryVsHistory-720pWEB-DLH264HuNmkv_snapshot_0433_20111018_194353.jpg&quot; rel=&quot;nofollow&quot; target=&quot;_NEW&quot;&gt;\nhttp://i1140.photobucket.com/albums/n566/ShaunGP/ScreenShots1/HowIMetYourMother-S07E06-MysteryVsHistory-720pWEB-DLH264HuNmkv_snapshot_0433_20111018_194353.jpg&lt;/a&gt;\n\n\nEncoder's Notes:\n\nDo Provide Feedback.\nKeep in Mind, you are charged nothing for Downloading a TORRENT,\nso its your duty to SEED n keep the torrent alive for as long as possible.\nEnjoy..!!! Keep Seeding till 1:1 ratio...","torrent":{"xt":"urn:btih:2b05ce7f3141b967f2026528ac5afcd645f23255","amp;dn":"How+I+Met+Your+Mother+-+S07E06+-+720p+WEB-DL+H.264+%7B%24H%40uN%7D","amp;tr":["udp%3A%2F%2Ftracker.openbittorrent.com%3A80","udp%3A%2F%2Fopen.demonii.com%3A1337","udp%3A%2F%2Ftracker.coppersurfer.tk%3A6969","udp%3A%2F%2Fexodus.desync.com%3A6969"],"infoHash":"2b05ce7f3141b967f2026528ac5afcd645f23255","infoHashBuffer":{"type":"Buffer","data":[43,5,206,127,49,65,185,103,242,2,101,40,172,90,252,214,69,242,50,85]},"announce":[],"urlList":[]}}